<svg id="flat" height="512" viewBox="0 0 512 512" width="512" xmlns="http://www.w3.org/2000/svg"><path d="m336 352v80l-96-96v152h-216v-176a48 48 0 0 1 48-48h159.43a39.994 39.994 0 0 1 28.29 11.72z" fill="#ef5e3b"/><rect fill="#e04f2b" height="56.569" rx="8" transform="matrix(.707 -.707 .707 .707 -264.784 152.755)" width="16" x="44" y="367.716"/><rect fill="#e04f2b" height="62.225" rx="8" transform="matrix(.707 -.707 .707 .707 -219.955 168.981)" width="16" x="86" y="318.887"/><path d="m336 336h152v152h-152z" fill="#ffc431"/><path d="m208 456h128a0 0 0 0 1 0 0v32a0 0 0 0 1 0 0h-112a16 16 0 0 1 -16-16v-16a0 0 0 0 1 0 0z" fill="#ffa100"/><path d="m168 240v48a23.6 23.6 0 0 1 -1.38 8 24 24 0 0 1 -46.62-8v-48z" fill="#ffceb6"/><path d="m168 240v48a23.6 23.6 0 0 1 -1.38 8h-6.62a24.006 24.006 0 0 1 -24-24v-32z" fill="#ffbfa1"/><path d="m72 416 44-44 36 36h88l24.806-12.4a34.065 34.065 0 0 1 15.237-3.6 34.069 34.069 0 0 1 26.173 12.259l27.061 32.474a11.742 11.742 0 0 1 2.723 7.52 11.747 11.747 0 0 1 -11.747 11.747 12.752 12.752 0 0 1 -7.655-2.552l-28.598-21.448-32 24h-117.49a64 64 0 0 1 -45.255-18.745z" fill="#ffceb6"/><path d="m336 352v80l-64-64 40-40z" fill="#ffceb6"/><circle cx="416" cy="408" fill="#ffe28f" r="24"/><path d="m232 40a16 16 0 0 1 16-16h224a16 16 0 0 1 16 16v200a16 16 0 0 1 -16 16h-64v40l-56-40h-104a16 16 0 0 1 -16-16z" fill="#4f5dff"/><g fill="#3d46f5"><path d="m264 80h16v16h-16z"/><path d="m304 80h48v16h-48z"/><path d="m368 80h16v16h-16z"/><path d="m264 112h16v16h-16z"/><path d="m304 112h24v16h-24z"/><path d="m344 112h88v16h-88z"/><path d="m264 144h16v16h-16z"/><path d="m304 144h64v16h-64z"/><path d="m384 144h16v16h-16z"/><path d="m264 176h16v16h-16z"/><path d="m304 176h112v16h-112z"/><path d="m432 176h16v16h-16z"/><path d="m264 208h16v16h-16z"/><path d="m304 208h72v16h-72z"/><path d="m392 208h16v16h-16z"/></g><path d="m152 280a32 32 0 0 1 -32-32v-16l24-24h40v40a32 32 0 0 1 -32 32z" fill="#ffceb6"/><path d="m184 208 7.8-3.9a14.834 14.834 0 0 0 8.2-13.267 14.833 14.833 0 0 0 -14.833-14.833h-33.167a32 32 0 0 0 -32 32v24l24-24z" fill="#c47220"/><circle cx="256" cy="48" fill="#fa8669" r="8"/><circle cx="280" cy="48" fill="#ffc431" r="8"/><circle cx="304" cy="48" fill="#08d175" r="8"/></svg>